<?xml version="1.0" encoding="utf-8"?>
<svg height="1000px" viewBox="0 0 576 512" xmlns="http://www.w3.org/2000/svg">
  <path d="M264.5 5.2c14.9-6.9 32.1-6.9 47 0l218.6 101c8.5 3.9 13.9 12.4 13.9 21.8s-5.4 17.9-13.9 21.8l-218.6 101c-14.9 6.9-32.1 6.9-47 0L45.9 149.8C37.4 145.8 32 137.3 32 128s5.4-17.9 13.9-21.8L264.5 5.2z"/>
  <path d="M476.9 209.6l53.2 24.6c8.5 3.9 13.9 12.4 13.9 21.8s-5.4 17.9-13.9 21.8l-218.6 101c-14.9 6.9-32.1 6.9-47 0L45.9 277.8C37.4 273.8 32 265.3 32 256s5.4-17.9 13.9-21.8l53.2-24.6 152 70.2c23.4 10.8 50.4 10.8 73.8 0l152-70.2z" style="fill-opacity: 0.75;"/>
  <path d="M 476.9 337.593 L 530.1 362.193 C 538.6 366.093 544 374.593 544 383.993 C 544 393.393 538.6 401.893 530.1 405.793 L 311.5 506.793 C 296.6 513.693 279.4 513.693 264.5 506.793 L 45.9 405.793 C 37.4 401.793 32 393.293 32 383.993 C 32 374.693 37.4 366.093 45.9 362.193 L 99.1 337.593 L 251.1 407.793 C 274.5 418.593 301.5 418.593 324.9 407.793 L 476.9 337.593 Z" style="fill-opacity: 0.50;"/>
</svg>